<?xml version="1.0" encoding="UTF-8" standalone="no"?>
<svg
   xmlns:dc="http://purl.org/dc/elements/1.1/"
   xmlns:cc="http://creativecommons.org/ns#"
   xmlns:rdf="http://www.w3.org/1999/02/22-rdf-syntax-ns#"
   xmlns:svg="http://www.w3.org/2000/svg"
   xmlns="http://www.w3.org/2000/svg"
   xmlns:sodipodi="http://sodipodi.sourceforge.net/DTD/sodipodi-0.dtd"
   xmlns:inkscape="http://www.inkscape.org/namespaces/inkscape"
   height="100"
   width="100"
   inkscape:version="1.0rc1 (09960d6, 2020-04-09)"
   sodipodi:docname="refresh-icon.svg"
   id="svg919"
   xml:space="preserve"
   enable-background="new 0 0 1000 1000"
   viewBox="0 0 100 100"
   y="0px"
   x="0px"
   version="1.1"><defs
   id="defs923" /><sodipodi:namedview
   inkscape:current-layer="svg919"
   inkscape:window-maximized="0"
   inkscape:window-y="101"
   inkscape:window-x="244"
   inkscape:cy="103.86847"
   inkscape:cx="110.3899"
   inkscape:zoom="2.083039"
   showgrid="false"
   id="namedview921"
   inkscape:window-height="806"
   inkscape:window-width="1310"
   inkscape:pageshadow="2"
   inkscape:pageopacity="0"
   guidetolerance="10"
   gridtolerance="10"
   objecttolerance="10"
   borderopacity="1"
   bordercolor="#666666"
   pagecolor="#bababa"
   inkscape:document-rotation="0"
   inkscape:pagecheckerboard="false" />
<metadata
   id="metadata913"> Svg Vector Icons : http://www.onlinewebfonts.com/icon <rdf:RDF><cc:Work
     rdf:about=""><dc:format>image/svg+xml</dc:format><dc:type
       rdf:resource="http://purl.org/dc/dcmitype/StillImage" /><dc:title></dc:title></cc:Work></rdf:RDF></metadata>

<g
   transform="matrix(0.12106686,0,0,0.12106686,-10.53343,-10.53343)"
   id="g1615"><path
     inkscape:connector-curvature="0"
     id="path925"
     style="fill:#ffffff;stroke-width:0.994975;stroke-opacity:0.663968"
     d="M 502.14258,183.22541 V 308.54182 A 239.57355,239.57355 0 0 1 739.5332,548.10627 239.57355,239.57355 0 0 1 499.95899,787.67853 239.57355,239.57355 0 0 1 260.51173,555.81721 H 135.15234 A 364.88895,364.88895 0 0 0 499.95899,912.99494 364.88895,364.88895 0 0 0 864.84766,548.10627 364.88895,364.88895 0 0 0 502.14258,183.22541 Z" /><path
     id="rect949"
     style="fill:#ffffff;stroke-width:1.09018;stroke-opacity:0.663968"
     d="M 399.99662,177.0338 653.50421,87.005064 c -115.52413,335.262606 0,0 -115.52413,335.262606 z"
     inkscape:connector-curvature="0"
     sodipodi:nodetypes="cccc" /></g></svg>
